<?xml version="1.0" standalone="no"?>
<!DOCTYPE svg PUBLIC "-//W3C//DTD SVG 20010904//EN"
 "http://www.w3.org/TR/2001/REC-SVG-20010904/DTD/svg10.dtd">
<svg version="1.0" xmlns="http://www.w3.org/2000/svg"
 width="100.000000pt" height="100.000000pt" viewBox="0 0 100.000000 100.000000"
 preserveAspectRatio="xMidYMid meet">
<metadata>
Created by potrace 1.16, written by Peter Selinger 2001-2019
</metadata>
<g transform="translate(0.000000,100.000000) scale(0.006250,-0.006250)"
fill="#000000" stroke="none">
<path d="M7040 14989 c-1796 -133 -3397 -955 -4554 -2339 -650 -776 -1124
-1748 -1340 -2745 -105 -481 -146 -875 -146 -1395 0 -525 43 -927 151 -1419
384 -1743 1516 -3289 3069 -4191 451 -262 1141 -560 1296 -560 201 0 381 147
461 377 l27 78 3 465 c2 261 0 471 -5 478 -7 11 -37 9 -163 -12 -370 -62 -649
-61 -959 0 -173 34 -309 82 -485 169 -194 97 -311 181 -465 335 -187 186 -245
275 -381 583 -59 135 -171 330 -256 449 -81 115 -234 271 -328 337 -161 113
-253 219 -239 276 13 51 67 77 200 96 186 26 484 -68 704 -222 125 -87 283
-255 381 -404 104 -158 178 -246 275 -329 309 -264 708 -390 1179 -373 188 7
314 27 445 70 l95 32 7 185 c10 288 48 492 119 631 17 34 29 62 27 64 -2 2
-41 10 -88 20 -774 151 -1394 405 -1884 769 -663 493 -1049 1149 -1158 1971
-21 160 -18 705 5 875 73 535 229 962 503 1371 83 125 215 291 302 381 l45 47
-32 50 c-137 213 -220 649 -192 1005 26 317 107 579 245 791 l57 88 142 -6
c592 -24 1235 -317 1688 -768 l97 -97 83 30 c124 44 408 114 582 142 817 134
1763 87 2440 -121 l117 -36 98 96 c281 279 648 502 1033 631 235 78 501 126
698 126 l97 0 51 -77 c122 -186 199 -403 240 -671 20 -133 22 -458 4 -592 -28
-212 -88 -428 -146 -526 l-26 -45 66 -72 c355 -386 609 -926 709 -1508 45
-262 51 -338 51 -694 0 -278 -3 -361 -18 -455 -39 -248 -89 -447 -162 -647
-93 -251 -286 -583 -463 -793 -535 -638 -1346 -1061 -2434 -1270 -32 -6 -58
-13 -58 -16 0 -2 15 -35 34 -72 105 -208 115 -370 116 -1830 l0 -933 26 -77
c34 -101 80 -176 151 -244 67 -63 117 -91 200 -113 92 -24 144 -19 277 26 888
302 1760 852 2451 1544 1038 1039 1686 2376 1854 3821 36 304 44 487 38 873
-5 356 -10 439 -43 701 -206 1668 -1063 3199 -2381 4255 -1044 836 -2277 1317
-3628 1415 -160 11 -748 11 -905 -1z"/>
</g>
</svg>
